<svg width="40" height="40" viewBox="0 0 40 40" fill="none" xmlns="http://www.w3.org/2000/svg">
<g clip-path="url(#clip0_7387_162)">
<path d="M30 26.8C28.7333 26.8 27.6 27.3 26.7333 28.0833L14.85 21.1666C14.9333 20.7833 15 20.4 15 20C15 19.6 14.9333 19.2166 14.85 18.8333L26.6 11.9833C27.5 12.8166 28.6833 13.3333 30 13.3333C32.7667 13.3333 35 11.1 35 8.33331C35 5.56665 32.7667 3.33331 30 3.33331C27.2333 3.33331 25 5.56665 25 8.33331C25 8.73331 25.0667 9.11665 25.15 9.49998L13.4 16.35C12.5 15.5166 11.3167 15 10 15C7.23333 15 5 17.2333 5 20C5 22.7666 7.23333 25 10 25C11.3167 25 12.5 24.4833 13.4 23.65L25.2667 30.5833C25.1833 30.9333 25.1333 31.3 25.1333 31.6666C25.1333 34.35 27.3167 36.5333 30 36.5333C32.6833 36.5333 34.8667 34.35 34.8667 31.6666C34.8667 28.9833 32.6833 26.8 30 26.8Z" fill="white"/>
</g>
<defs>
<clipPath id="clip0_7387_162">
<rect width="40" height="40" fill="white"/>
</clipPath>
</defs>
</svg>
